	.include "asm/macros.inc"

	.section .rodata
	.global gbs_TrainerBattle
	.align 1

gbs_TrainerBattle_Ch1:
	gbs_switch 0
	tempo 112
	volume 7, 7
	duty_cycle 3
	vibrato 6, 3, 4
	pitch_offset 1
	note_type 12, 11, 2
	rest 8
	octave 3
	note F_, 1
	note E_, 1
	note F_, 1
	note E_, 1
	note Ds, 1
	note E_, 1
	note Ds, 1
	note D_, 1
	note Ds, 1
	note D_, 1
	note Cs, 1
	note D_, 1
	note Cs, 1
	note C_, 1
	note Cs, 1
	note C_, 1
	octave 2
	note B_, 1
	octave 3
	note C_, 1
	octave 2
	note B_, 1
	note As, 1
	note B_, 1
	note As, 1
	note A_, 1
	note As, 1
	octave 3
	note D_, 6
	note E_, 6
	note F_, 4
	note D_, 2
	note E_, 4
	note F_, 6
	note C_, 4
	note D_, 6
	note E_, 6
	note F_, 4
	note D_, 2
	note E_, 4
	note F_, 6
	note C_, 2
	note Cs, 2
	note D_, 6
	note E_, 6
	note F_, 4
	note D_, 2
	note E_, 4
	note F_, 6
	note C_, 4
	note D_, 6
	note E_, 6
	note F_, 4
	note D_, 2
	note E_, 4
	note F_, 6
	note C_, 2
	note Cs, 2

gbs_TrainerBattle_branch_22962:
	note_type 12, 11, 5
	note D_, 2
	note E_, 4
	note Cs, 2
	note D_, 4
	octave 2
	note B_, 4
	note Fs, 4
	octave 3
	note E_, 2
	note D_, 4
	note Cs, 2
	note D_, 2
	note E_, 2
	note F_, 8
	note_type 12, 11, 2
	note C_, 1
	note Cs, 1
	note D_, 1
	note Ds, 1
	note E_, 1
	note Ds, 1
	note D_, 1
	note C_, 1
	note C_, 1
	note Cs, 1
	note D_, 1
	note Ds, 1
	note E_, 1
	note F_, 1
	note Fs, 1
	note G_, 1
	note Gs, 1
	note G_, 1
	note Fs, 1
	note F_, 1
	note E_, 1
	note Ds, 1
	note D_, 1
	note C_, 1
	note_type 12, 11, 5
	note D_, 2
	note E_, 4
	note Cs, 2
	note D_, 4
	octave 2
	note B_, 4
	note Fs, 4
	octave 3
	note E_, 2
	note D_, 4
	note Cs, 2
	octave 2
	note B_, 2
	octave 3
	note Cs, 2
	note_type 12, 10, 7
	note D_, 8
	note Cs, 8
	octave 2
	note B_, 8
	octave 3
	note Cs, 8
	note_type 12, 11, 5
	note D_, 2
	note Cs, 2
	octave 2
	note B_, 2
	note A_, 2
	note G_, 2
	rest 2
	octave 3
	note D_, 2
	note Cs, 2
	octave 2
	note B_, 2
	note A_, 2
	note G_, 2
	rest 2
	octave 3
	note D_, 2
	note Cs, 2
	octave 2
	note B_, 2
	octave 3
	note Cs, 2
	note E_, 4
	octave 2
	note G_, 1
	note A_, 1
	note B_, 1
	octave 3
	note Cs, 1
	note D_, 4
	octave 2
	note Fs, 1
	note G_, 1
	note A_, 1
	note B_, 1
	octave 3
	note Cs, 4
	octave 2
	note G_, 1
	note A_, 1
	note B_, 1
	octave 3
	note Cs, 1
	note D_, 4
	octave 2
	note Fs, 1
	note G_, 1
	note A_, 1
	note B_, 1
	octave 3
	note D_, 2
	note Cs, 2
	octave 2
	note B_, 2
	note A_, 2
	note G_, 2
	rest 2
	octave 3
	note D_, 2
	note Cs, 2
	octave 2
	note B_, 2
	note A_, 2
	note B_, 2
	note G_, 2
	octave 3
	note D_, 2
	note E_, 2
	note Fs, 2
	note G_, 2
	note A_, 2
	note B_, 2
	note A_, 2
	note G_, 2
	note A_, 2
	rest 2
	note A_, 2
	note B_, 2
	note A_, 2
	note G_, 2
	note Fs, 2
	note G_, 2
	note A_, 2
	note E_, 2
	note G_, 2
	note Fs, 2
	octave 2
	note B_, 1
	octave 3
	note C_, 1
	note Cs, 1
	note D_, 1
	note Ds, 1
	note E_, 1
	note F_, 1
	note Fs, 1
	note G_, 1
	note Gs, 1
	note A_, 1
	note As, 1
	note B_, 1
	octave 4
	note C_, 1
	note Cs, 1
	note D_, 1
	note Ds, 1
	note D_, 1
	note Cs, 1
	note C_, 1
	octave 3
	note B_, 1
	note As, 1
	note A_, 1
	note Gs, 1
	note G_, 1
	note Fs, 1
	note F_, 1
	note E_, 1
	note Ds, 1
	note D_, 1
	note Cs, 1
	note C_, 1
	note C_, 1
	note Cs, 1
	note D_, 1
	note Ds, 1
	note E_, 1
	note F_, 1
	note Fs, 1
	note G_, 1
	note Gs, 1
	note A_, 1
	note As, 1
	note B_, 1
	octave 4
	note C_, 1
	note Cs, 1
	note D_, 1
	note Ds, 1
	note E_, 1
	note Ds, 1
	note D_, 1
	note Cs, 1
	note C_, 1
	octave 3
	note B_, 1
	note As, 1
	note A_, 1
	note Gs, 1
	note G_, 1
	note Fs, 1
	note F_, 1
	note E_, 1
	note Ds, 1
	note D_, 1
	note Cs, 1
	note Cs, 1
	note D_, 1
	note Ds, 1
	note E_, 1
	note F_, 1
	note Fs, 1
	note G_, 1
	note Gs, 1
	note A_, 1
	note As, 1
	note B_, 1
	octave 4
	note C_, 1
	note Cs, 1
	note D_, 1
	note Ds, 1
	note E_, 1
	note F_, 1
	note E_, 1
	note Ds, 1
	note D_, 1
	note Cs, 1
	note C_, 1
	octave 3
	note B_, 1
	note As, 1
	note A_, 1
	note Gs, 1
	note G_, 1
	note Fs, 1
	note F_, 1
	note E_, 1
	note Ds, 1
	note D_, 1
	note D_, 1
	note Ds, 1
	note E_, 1
	note F_, 1
	note Fs, 1
	note G_, 1
	note Gs, 1
	note A_, 1
	note As, 1
	note B_, 1
	octave 4
	note C_, 1
	note Cs, 1
	note D_, 1
	note Ds, 1
	note E_, 1
	note F_, 1
	note Fs, 1
	note F_, 1
	note E_, 1
	note Ds, 1
	note D_, 1
	note Cs, 1
	note C_, 1
	octave 3
	note B_, 1
	note As, 1
	note B_, 1
	octave 4
	note C_, 1
	note Cs, 1
	note D_, 1
	note Ds, 1
	note E_, 1
	note F_, 1
	octave 3
	note A_, 4
	octave 4
	note D_, 4
	octave 3
	note A_, 2
	note D_, 1
	note E_, 1
	note Fs, 1
	note G_, 1
	note Gs, 1
	note As, 1
	note B_, 2
	octave 4
	note C_, 2
	octave 3
	note A_, 2
	octave 4
	note C_, 2
	octave 3
	note G_, 2
	note B_, 2
	note F_, 2
	note G_, 2
	note A_, 2
	octave 4
	note C_, 2
	note D_, 2
	rest 2
	octave 3
	note A_, 4
	octave 4
	note C_, 4
	note D_, 2
	octave 3
	note F_, 1
	note G_, 1
	note A_, 1
	note B_, 1
	octave 4
	note C_, 1
	note D_, 1
	note E_, 2
	note F_, 2
	note D_, 2
	note F_, 2
	note D_, 2
	note F_, 2
	note D_, 2
	note F_, 2
	note D_, 2
	note F_, 2
	note D_, 2
	note F_, 2
	note E_, 2
	note F_, 2
	note E_, 2
	note F_, 2
	note E_, 2
	note F_, 2
	note E_, 2
	note F_, 2
	note E_, 2
	note F_, 2
	note E_, 2
	note F_, 2
	note E_, 2
	note F_, 2
	note E_, 2
	octave 3
	note B_, 2
	note C_, 2
	octave 2
	note A_, 2
	octave 3
	note E_, 2
	note C_, 2
	octave 2
	note A_, 2
	octave 3
	note E_, 2
	note C_, 2
	octave 2
	note A_, 2
	octave 3
	note E_, 2
	note C_, 2
	octave 2
	note A_, 2
	octave 3
	note E_, 2
	note C_, 2
	octave 2
	note A_, 2
	octave 3
	note C_, 2
	note E_, 2
	note D_, 2
	octave 2
	note As, 2
	octave 3
	note F_, 2
	note D_, 2
	octave 2
	note As, 2
	octave 3
	note F_, 2
	note D_, 2
	octave 2
	note As, 2
	octave 3
	note F_, 2
	note D_, 2
	octave 2
	note As, 2
	octave 3
	note F_, 2
	note D_, 2
	octave 2
	note As, 2
	octave 3
	note D_, 2
	note F_, 2
	note C_, 2
	octave 2
	note A_, 2
	octave 3
	note E_, 2
	note C_, 2
	octave 2
	note A_, 2
	octave 3
	note E_, 2
	note C_, 2
	octave 2
	note A_, 2
	octave 3
	note E_, 2
	note C_, 2
	octave 2
	note A_, 2
	octave 3
	note E_, 2
	note C_, 2
	octave 2
	note A_, 2
	octave 3
	note C_, 2
	note E_, 2
	note D_, 2
	octave 2
	note As, 2
	octave 3
	note F_, 2
	note D_, 2
	octave 2
	note As, 2
	octave 3
	note F_, 2
	note D_, 2
	octave 2
	note As, 2
	octave 3
	note F_, 2
	note D_, 2
	octave 2
	note As, 2
	octave 3
	note F_, 2
	note D_, 2
	octave 2
	note As, 2
	octave 3
	note D_, 2
	note F_, 2
	note D_, 16
	note C_, 16
	octave 2
	note As, 16
	note G_, 12
	octave 3
	note D_, 1
	note E_, 1
	note G_, 1
	octave 4
	note C_, 1
	note D_, 8
	note F_, 8
	octave 3
	note As, 8
	octave 4
	note C_, 8
	note D_, 8
	note E_, 8
	note F_, 8
	note G_, 8
	note E_, 2
	rest 4
	note E_, 2
	rest 4
	note E_, 2
	rest 2
	note E_, 2
	rest 4
	note E_, 2
	rest 4
	note E_, 2
	rest 2
	note E_, 2
	rest 4
	note E_, 2
	rest 4
	note E_, 2
	rest 2
	note E_, 2
	rest 4
	note E_, 2
	rest 4
	note E_, 2
	rest 2
	octave 3
	note C_, 2
	note D_, 4
	octave 2
	note B_, 2
	octave 3
	note Cs, 4
	rest 2
	note Cs, 1
	note D_, 1
	note E_, 1
	rest 1
	note D_, 1
	rest 1
	octave 2
	note B_, 1
	rest 1
	octave 3
	note Cs, 1
	rest 9
	note D_, 1
	note Ds, 1
	note E_, 1
	note F_, 1
	note F_, 1
	note E_, 1
	note Ds, 1
	note D_, 1
	note Cs, 1
	rest 5
	note Cs, 1
	note D_, 1
	note E_, 1
	rest 1
	note F_, 1
	rest 1
	note E_, 1
	rest 1
	note D_, 1
	rest 1
	note D_, 2
	note E_, 2
	note F_, 2
	note G_, 2
	note Ds, 1
	note E_, 1
	note F_, 1
	note Fs, 1
	note Fs, 1
	note F_, 1
	note E_, 1
	note Ds, 1
	note D_, 1
	rest 9
	note Fs, 2
	note E_, 4
	note Ds, 2
	note E_, 2
	note Fs, 2
	note Gs, 2
	note E_, 8
	note Fs, 8
	note G_, 8
	octave 4
	note C_, 4
	octave 3
	note G_, 1
	note Gs, 1
	note A_, 1
	note As, 1
	sound_loop 0, gbs_TrainerBattle_branch_22962


gbs_TrainerBattle_Ch2:
	gbs_switch 1
	duty_cycle 3
	vibrato 10, 2, 5
	note_type 12, 12, 2
	octave 4
	note A_, 1
	note Gs, 1
	note G_, 1
	note Fs, 1
	note A_, 1
	note F_, 1
	note Fs, 1
	note F_, 1
	note A_, 1
	note E_, 1
	note F_, 1
	note E_, 1
	note A_, 1
	note Ds, 1
	note E_, 1
	note Ds, 1
	note A_, 1
	note D_, 1
	note Ds, 1
	note D_, 1
	note A_, 1
	note Cs, 1
	note D_, 1
	note Cs, 1
	note A_, 1
	note C_, 1
	note Cs, 1
	note C_, 1
	note A_, 1
	octave 3
	note B_, 1
	octave 4
	note C_, 1
	octave 3
	note B_, 1
	note_type 12, 14, 1
	octave 4
	note B_, 16
	rest 16
	note_type 12, 13, 1
	note B_, 16
	rest 12
	note A_, 4
	note_type 12, 12, 2
	octave 3
	note B_, 6
	octave 4
	note Cs, 6
	note D_, 4
	octave 3
	note B_, 2
	octave 4
	note Cs, 4
	note D_, 6
	note A_, 2
	note As, 2
	note B_, 6
	octave 5
	note Cs, 6
	note D_, 4
	octave 4
	note B_, 2
	octave 5
	note Cs, 4
	note D_, 6
	octave 4
	note A_, 4

gbs_TrainerBattle_branch_22bfc:
	note_type 12, 12, 7
	octave 3
	note B_, 6
	note Fs, 14
	note B_, 4
	note Fs, 4
	note B_, 4
	note_type 12, 5, 0
	octave 4
	note C_, 8
	note_type 12, 3, 0
	note C_, 8
	note_type 12, 4, -6
	note C_, 8
	note_type 12, 12, 7
	note C_, 8
	octave 3
	note B_, 6
	note Fs, 14
	note B_, 4
	note Fs, 4
	note B_, 4
	note_type 12, 9, 0
	note A_, 8
	note_type 12, 5, 0
	note A_, 8
	note_type 12, 4, 0
	note A_, 8
	note_type 12, 3, 0
	note A_, 8
	note_type 12, 12, 7
	note G_, 16
	octave 4
	note D_, 8
	octave 3
	note G_, 8
	note_type 12, 8, 0
	note A_, 8
	note_type 12, 5, 0
	note A_, 8
	note_type 12, 4, 0
	note A_, 8
	note_type 12, 6, 0
	note A_, 8
	note_type 12, 12, 7
	note G_, 16
	octave 4
	note E_, 8
	note Fs, 8
	note E_, 16
	note_type 12, 12, 5
	note G_, 4
	note A_, 2
	note G_, 2
	note Fs, 2
	note E_, 2
	note D_, 2
	note E_, 2
	note_type 12, 11, 7
	note Fs, 8
	note_type 12, 5, 0
	note Fs, 8
	note_type 12, 6, 0
	note Fs, 8
	note_type 12, 7, 0
	note Fs, 8
	note_type 12, 10, 0
	note G_, 8
	note_type 12, 10, 7
	note G_, 8
	note_type 12, 11, 7
	note G_, 4
	note_type 12, 12, 5
	note A_, 2
	note G_, 2
	note G_, 2
	note Fs, 2
	note E_, 2
	note Fs, 2
	note_type 12, 10, 0
	note Gs, 8
	note_type 12, 7, 0
	note Gs, 8
	note_type 12, 8, 0
	note Gs, 8
	note_type 12, 6, 0
	note Gs, 8
	note_type 12, 10, 0
	note A_, 16
	note_type 12, 11, 0
	octave 5
	note Cs, 8
	note E_, 8
	note_type 12, 12, 0
	note D_, 4
	octave 4
	note A_, 4
	octave 5
	note C_, 2
	note_type 12, 12, 7
	octave 4
	note B_, 8
	note_type 12, 6, 0
	note B_, 8
	note_type 12, 6, -1
	note B_, 6
	note_type 12, 9, 6
	note B_, 6
	rest 2
	note_type 12, 12, 0
	octave 5
	note D_, 4
	octave 4
	note A_, 4
	note As, 2
	note_type 12, 11, 0
	octave 5
	note F_, 14
	note_type 12, 6, 0
	note G_, 16
	note_type 12, 5, 0
	note E_, 16
	note_type 12, 4, 0
	note E_, 16
	note_type 12, 12, 7
	octave 4
	note C_, 6
	octave 3
	note A_, 14
	octave 4
	note C_, 4
	octave 3
	note A_, 4
	octave 4
	note C_, 4
	octave 3
	note As, 6
	octave 4
	note F_, 14
	octave 3
	note As, 4
	octave 4
	note F_, 4
	note D_, 4
	note C_, 6
	octave 3
	note A_, 14
	octave 4
	note C_, 4
	note E_, 2
	note D_, 2
	note C_, 2
	note E_, 2
	note D_, 2
	octave 3
	note As, 4
	octave 4
	note F_, 10
	note G_, 6
	note F_, 6
	note D_, 4
	note_type 12, 11, 0
	note F_, 16
	note E_, 16
	note D_, 16
	note E_, 16
	note_type 12, 10, 0
	octave 5
	note F_, 16
	note E_, 16
	note G_, 16
	note F_, 16
	note_type 12, 13, 1
	octave 3
	note As, 6
	note As, 6
	note As, 4
	note A_, 6
	note A_, 6
	note A_, 4
	octave 4
	note C_, 6
	note C_, 6
	note C_, 4
	octave 3
	note As, 6
	note As, 6
	note A_, 4
	note_type 12, 12, 7
	note A_, 4
	note B_, 4
	note G_, 2
	note A_, 10
	note B_, 2
	octave 4
	note Cs, 2
	note E_, 2
	note D_, 2
	note Cs, 2
	octave 3
	note B_, 2
	note As, 16
	rest 2
	note As, 2
	octave 4
	note C_, 2
	note F_, 2
	note E_, 2
	note D_, 2
	note C_, 2
	octave 3
	note As, 2
	note B_, 16
	rest 2
	note B_, 2
	octave 4
	note Cs, 2
	note G_, 2
	note Fs, 2
	note E_, 2
	note D_, 2
	octave 3
	note B_, 2
	octave 4
	note C_, 16
	note E_, 8
	note G_, 8
	sound_loop 0, gbs_TrainerBattle_branch_22bfc


gbs_TrainerBattle_Ch3:
	gbs_switch 2
	vibrato 0, 2, 0
	note_type 12, 1, 4
	octave 3
	note B_, 1
	note As, 1
	note A_, 1
	note Gs, 1
	note A_, 1
	note Gs, 1
	note G_, 1
	note Fs, 1
	note G_, 1
	note Fs, 1
	note F_, 1
	note E_, 1
	note F_, 1
	note E_, 1
	note Ds, 1
	note D_, 1
	note Ds, 1
	note D_, 1
	note Cs, 1
	note C_, 1
	note Cs, 1
	note C_, 1
	octave 2
	note B_, 1
	note As, 1
	note B_, 1
	note As, 1
	note A_, 1
	note Gs, 1
	note A_, 2
	note As, 2
	note B_, 2
	note B_, 2
	octave 3
	note D_, 2
	note E_, 2
	octave 2
	note B_, 2
	octave 3
	note F_, 2
	note E_, 2
	note D_, 2
	octave 2
	note B_, 2
	note B_, 2
	octave 3
	note D_, 2
	note E_, 2
	octave 2
	note B_, 2
	octave 3
	note D_, 2
	octave 2
	note As, 2
	octave 3
	note C_, 2
	octave 2
	note B_, 2
	note B_, 2
	octave 3
	note D_, 2
	note E_, 2
	octave 2
	note B_, 2
	octave 3
	note F_, 2
	note E_, 2
	note D_, 2
	octave 2
	note B_, 2
	note B_, 2
	octave 3
	note D_, 2
	note E_, 2
	octave 2
	note B_, 2
	octave 3
	note D_, 2
	octave 2
	note As, 2
	octave 3
	note C_, 2
	octave 2
	note B_, 2
	note B_, 2
	octave 3
	note D_, 2
	note E_, 2
	octave 2
	note B_, 2
	octave 3
	note F_, 2
	note E_, 2
	note D_, 2
	octave 2
	note B_, 2
	note B_, 2
	octave 3
	note D_, 2
	note E_, 2
	octave 2
	note B_, 2
	octave 3
	note D_, 2
	octave 2
	note As, 2
	octave 3
	note C_, 2
	octave 2
	note B_, 2
	note B_, 2
	octave 3
	note D_, 2
	note E_, 2
	octave 2
	note B_, 2
	octave 3
	note F_, 2
	note E_, 2
	note D_, 2
	octave 2
	note B_, 2
	note B_, 2
	octave 3
	note D_, 2
	note E_, 2
	octave 2
	note B_, 2
	octave 3
	note D_, 2
	octave 2
	note As, 2
	octave 3
	note C_, 2

gbs_TrainerBattle_branch_22d9c:
	octave 2
	note As, 1
	note B_, 1
	octave 3
	note Fs, 2
	octave 2
	note B_, 2
	octave 3
	note Fs, 2
	octave 2
	note B_, 2
	octave 3
	note Fs, 2
	octave 2
	note B_, 2
	octave 3
	note Fs, 2
	octave 2
	note B_, 2
	octave 3
	note Fs, 2
	octave 2
	note B_, 2
	octave 3
	note Fs, 2
	octave 2
	note B_, 2
	octave 3
	note Fs, 2
	octave 2
	note B_, 2
	octave 3
	note Fs, 2
	octave 2
	note B_, 2
	octave 3
	note G_, 2
	note C_, 2
	note G_, 2
	note C_, 2
	note G_, 2
	note C_, 2
	note G_, 2
	note C_, 2
	note G_, 2
	note A_, 2
	note G_, 2
	note Fs, 2
	note E_, 2
	note D_, 2
	note C_, 2
	octave 2
	note B_, 2
	octave 3
	note Fs, 2
	octave 2
	note B_, 2
	octave 3
	note Fs, 2
	octave 2
	note B_, 2
	octave 3
	note Fs, 2
	octave 2
	note B_, 2
	octave 3
	note Fs, 2
	octave 2
	note B_, 2
	octave 3
	note Fs, 2
	octave 2
	note B_, 2
	octave 3
	note Fs, 2
	octave 2
	note B_, 2
	octave 3
	note Fs, 2
	octave 2
	note B_, 2
	octave 3
	note F_, 2
	octave 2
	note A_, 2
	octave 3
	note E_, 2
	octave 2
	note A_, 2
	octave 3
	note E_, 2
	octave 2
	note A_, 2
	octave 3
	note E_, 2
	octave 2
	note A_, 2
	octave 3
	note E_, 2
	octave 2
	note A_, 2
	octave 3
	note E_, 2
	note D_, 2
	note Cs, 2
	note D_, 2
	note Cs, 2
	octave 2
	note A_, 2
	note Gs, 2
	note G_, 2
	octave 3
	note D_, 2
	octave 2
	note G_, 2
	octave 3
	note D_, 2
	octave 2
	note G_, 2
	octave 3
	note D_, 2
	octave 2
	note G_, 2
	octave 3
	note D_, 2
	octave 2
	note G_, 2
	octave 3
	note D_, 2
	octave 2
	note G_, 2
	octave 3
	note D_, 2
	octave 2
	note G_, 2
	octave 3
	note D_, 2
	octave 2
	note G_, 2
	note Gs, 2
	note A_, 2
	octave 3
	note E_, 2
	octave 2
	note A_, 2
	octave 3
	note E_, 2
	octave 2
	note A_, 2
	octave 3
	note E_, 2
	octave 2
	note A_, 2
	octave 3
	note E_, 2
	octave 2
	note A_, 2
	octave 3
	note E_, 2
	octave 2
	note A_, 2
	octave 3
	note E_, 2
	octave 2
	note A_, 2
	octave 3
	note E_, 2
	octave 2
	note A_, 2
	octave 3
	note E_, 2
	octave 2
	note G_, 2
	octave 3
	note D_, 2
	octave 2
	note G_, 2
	octave 3
	note D_, 2
	octave 2
	note G_, 2
	octave 3
	note D_, 2
	octave 2
	note G_, 2
	octave 3
	note D_, 2
	octave 2
	note G_, 2
	octave 3
	note D_, 2
	octave 2
	note G_, 2
	octave 3
	note D_, 2
	octave 2
	note G_, 2
	octave 3
	note D_, 2
	octave 2
	note G_, 2
	note Gs, 2
	note A_, 2
	octave 3
	note E_, 2
	octave 2
	note A_, 2
	octave 3
	note E_, 2
	octave 2
	note A_, 2
	octave 3
	note E_, 2
	octave 2
	note A_, 2
	octave 3
	note E_, 2
	octave 2
	note A_, 2
	octave 3
	note E_, 2
	octave 2
	note A_, 2
	octave 3
	note E_, 2
	octave 2
	note A_, 2
	octave 3
	note E_, 2
	note D_, 2
	note Cs, 2
	octave 2
	note B_, 2
	octave 3
	note Fs, 2
	octave 2
	note B_, 2
	octave 3
	note Fs, 2
	octave 2
	note B_, 2
	octave 3
	note Fs, 2
	octave 2
	note B_, 2
	octave 3
	note Fs, 2
	octave 2
	note B_, 2
	octave 3
	note Fs, 2
	note D_, 2
	note E_, 2
	note Fs, 2
	note E_, 2
	note D_, 2
	note Fs, 2
	note C_, 2
	note G_, 2
	note C_, 2
	note G_, 2
	note C_, 2
	note G_, 2
	note C_, 2
	note G_, 2
	note C_, 2
	note G_, 2
	note Ds, 2
	note F_, 2
	note G_, 2
	note F_, 2
	note Ds, 2
	note G_, 2
	note Cs, 2
	note Gs, 2
	note Cs, 2
	note Gs, 2
	note Cs, 2
	note Gs, 2
	note Cs, 2
	note Gs, 2
	note Cs, 2
	note Gs, 2
	note E_, 2
	note Fs, 2
	note Gs, 2
	note Fs, 2
	note E_, 2
	note Gs, 2
	note D_, 2
	note A_, 2
	note D_, 2
	note A_, 2
	note D_, 2
	note A_, 2
	note D_, 2
	note A_, 2
	note D_, 2
	note A_, 2
	note F_, 2
	note G_, 2
	note A_, 2
	note G_, 2
	note F_, 2
	note E_, 2
	note D_, 4
	octave 2
	note A_, 4
	octave 3
	note C_, 2
	note G_, 2
	octave 2
	note B_, 2
	octave 3
	note G_, 2
	octave 2
	note B_, 2
	octave 3
	note G_, 2
	octave 2
	note B_, 2
	octave 3
	note G_, 2
	octave 2
	note B_, 2
	octave 3
	note G_, 2
	octave 2
	note B_, 2
	octave 3
	note G_, 2
	octave 2
	note B_, 2
	octave 3
	note G_, 2
	octave 2
	note B_, 2
	octave 3
	note G_, 2
	note D_, 4
	octave 2
	note A_, 4
	note As, 2
	octave 3
	note F_, 2
	octave 2
	note As, 2
	octave 3
	note F_, 2
	octave 2
	note As, 2
	octave 3
	note F_, 2
	octave 2
	note As, 2
	octave 3
	note F_, 2
	octave 2
	note As, 2
	octave 3
	note F_, 2
	octave 2
	note As, 2
	octave 3
	note F_, 2
	octave 2
	note As, 2
	octave 3
	note F_, 2
	octave 2
	note As, 2
	octave 3
	note F_, 2
	octave 2
	note B_, 2
	octave 3
	note E_, 2
	octave 2
	note B_, 2
	octave 3
	note E_, 2
	octave 2
	note B_, 2
	octave 3
	note E_, 2
	octave 2
	note B_, 2
	octave 3
	note E_, 2
	octave 2
	note B_, 2
	octave 3
	note E_, 2
	octave 2
	note B_, 2
	octave 3
	note E_, 2
	octave 2
	note B_, 2
	octave 3
	note E_, 2
	octave 2
	note B_, 2
	octave 3
	note E_, 2
	octave 2
	note A_, 2
	octave 3
	note E_, 2
	octave 2
	note A_, 2
	octave 3
	note E_, 2
	octave 2
	note A_, 2
	octave 3
	note E_, 2
	octave 2
	note A_, 2
	octave 3
	note E_, 2
	octave 2
	note A_, 2
	octave 3
	note E_, 2
	octave 2
	note A_, 2
	octave 3
	note E_, 2
	octave 2
	note A_, 2
	octave 3
	note E_, 2
	octave 2
	note A_, 2
	octave 3
	note E_, 2
	octave 2
	note As, 2
	octave 3
	note F_, 2
	octave 2
	note As, 2
	octave 3
	note F_, 2
	octave 2
	note As, 2
	octave 3
	note F_, 2
	octave 2
	note As, 2
	octave 3
	note F_, 2
	octave 2
	note As, 2
	octave 3
	note F_, 2
	octave 2
	note As, 2
	octave 3
	note F_, 2
	octave 2
	note As, 2
	octave 3
	note F_, 2
	octave 2
	note As, 2
	octave 3
	note F_, 2
	octave 2
	note A_, 2
	octave 3
	note E_, 2
	octave 2
	note A_, 2
	octave 3
	note E_, 2
	octave 2
	note A_, 2
	octave 3
	note E_, 2
	octave 2
	note A_, 2
	octave 3
	note E_, 2
	octave 2
	note A_, 2
	octave 3
	note E_, 2
	octave 2
	note A_, 2
	octave 3
	note E_, 2
	octave 2
	note A_, 2
	octave 3
	note E_, 2
	octave 2
	note A_, 2
	octave 3
	note E_, 2
	octave 2
	note As, 2
	octave 3
	note F_, 2
	octave 2
	note As, 2
	octave 3
	note F_, 2
	octave 2
	note As, 2
	octave 3
	note F_, 2
	octave 2
	note As, 2
	octave 3
	note F_, 2
	octave 2
	note As, 2
	octave 3
	note F_, 2
	octave 2
	note As, 2
	octave 3
	note F_, 2
	octave 2
	note As, 2
	octave 3
	note F_, 2
	octave 2
	note As, 2
	octave 3
	note F_, 2
	octave 2
	note As, 4
	octave 3
	note F_, 4
	octave 2
	note As, 4
	octave 3
	note F_, 4
	octave 2
	note As, 4
	octave 3
	note E_, 4
	octave 2
	note As, 4
	octave 3
	note E_, 4
	octave 2
	note As, 4
	octave 3
	note D_, 4
	octave 2
	note As, 4
	octave 3
	note D_, 4
	octave 2
	note As, 4
	octave 3
	note E_, 4
	octave 2
	note As, 4
	octave 3
	note E_, 4
	octave 2
	note As, 4
	octave 3
	note F_, 4
	octave 2
	note As, 4
	octave 3
	note F_, 4
	octave 2
	note As, 4
	octave 3
	note E_, 4
	octave 2
	note As, 4
	octave 3
	note E_, 4
	octave 2
	note As, 4
	octave 3
	note D_, 4
	octave 2
	note As, 4
	octave 3
	note D_, 4
	octave 2
	note As, 4
	octave 3
	note E_, 4
	octave 2
	note As, 4
	octave 3
	note E_, 4
	octave 2
	note A_, 2
	octave 3
	note E_, 2
	note E_, 2
	octave 2
	note A_, 2
	octave 3
	note E_, 2
	note E_, 2
	octave 2
	note A_, 2
	octave 3
	note E_, 2
	note E_, 2
	octave 2
	note A_, 2
	octave 3
	note E_, 2
	note E_, 2
	octave 2
	note A_, 2
	octave 3
	note E_, 2
	note E_, 2
	octave 2
	note B_, 2
	note A_, 2
	octave 3
	note E_, 2
	note E_, 2
	octave 2
	note A_, 2
	octave 3
	note E_, 2
	note E_, 2
	octave 2
	note A_, 2
	octave 3
	note E_, 2
	note E_, 2
	octave 2
	note A_, 2
	octave 3
	note E_, 2
	note E_, 2
	octave 2
	note A_, 2
	octave 3
	note E_, 2
	note E_, 2
	octave 2
	note B_, 2
	note A_, 2
	octave 3
	note E_, 2
	octave 2
	note A_, 2
	octave 3
	note E_, 2
	octave 2
	note A_, 2
	octave 3
	note E_, 2
	octave 2
	note A_, 2
	octave 3
	note E_, 2
	octave 2
	note A_, 2
	octave 3
	note E_, 2
	octave 2
	note A_, 2
	octave 3
	note E_, 2
	octave 2
	note A_, 2
	octave 3
	note E_, 2
	octave 2
	note A_, 2
	octave 3
	note E_, 2
	octave 2
	note As, 2
	octave 3
	note F_, 2
	octave 2
	note As, 2
	octave 3
	note F_, 2
	octave 2
	note As, 2
	octave 3
	note F_, 2
	octave 2
	note As, 2
	octave 3
	note F_, 2
	octave 2
	note As, 2
	octave 3
	note F_, 2
	octave 2
	note As, 2
	octave 3
	note F_, 2
	octave 2
	note As, 2
	octave 3
	note F_, 2
	octave 2
	note As, 2
	octave 3
	note F_, 2
	octave 2
	note B_, 2
	octave 3
	note Fs, 2
	octave 2
	note B_, 2
	octave 3
	note Fs, 2
	octave 2
	note B_, 2
	octave 3
	note Fs, 2
	octave 2
	note B_, 2
	octave 3
	note Fs, 2
	octave 2
	note B_, 2
	octave 3
	note Fs, 2
	octave 2
	note B_, 2
	octave 3
	note Fs, 2
	octave 2
	note B_, 2
	octave 3
	note Fs, 2
	octave 2
	note B_, 2
	octave 3
	note Fs, 2
	note C_, 2
	note G_, 2
	note C_, 2
	note G_, 2
	note C_, 2
	note G_, 2
	note C_, 2
	note G_, 2
	note C_, 2
	note G_, 2
	note Fs, 2
	note E_, 2
	note Fs, 2
	note E_, 2
	note D_, 2
	note C_, 2
	sound_loop 0, gbs_TrainerBattle_branch_22d9c

	.align 4
gbs_TrainerBattle:
	.byte 3	@ NumTrks
	.byte 0	@ NumBlks
	.byte 0	@ Priority
	.byte 0	@ Reverb

	.int voicegroup000

	.int gbs_TrainerBattle_Ch1
	.int gbs_TrainerBattle_Ch2
	.int gbs_TrainerBattle_Ch3
